<svg width="60" height="60" viewBox="0 0 60 60" fill="none" xmlns="http://www.w3.org/2000/svg">
<g clip-path="url(#clip0_1_1695)">
<path fill-rule="evenodd" clip-rule="evenodd" d="M22.7222 17.5C22.7222 17.062 27.2382 14 31.7222 14C36.2062 14 40.7222 17.063 40.7222 17.5C40.7222 19.06 40.5562 19.984 40.4162 20.487C40.3232 20.817 40.0142 21 39.6712 21H23.7732C23.4302 21 23.1212 20.817 23.0282 20.487C22.8882 19.984 22.7222 19.06 22.7222 17.5ZM30.2222 17C29.957 17 29.7026 17.1054 29.5151 17.2929C29.3275 17.4804 29.2222 17.7348 29.2222 18C29.2222 18.2652 29.3275 18.5196 29.5151 18.7071C29.7026 18.8946 29.957 19 30.2222 19H33.2222C33.4874 19 33.7417 18.8946 33.9293 18.7071C34.1168 18.5196 34.2222 18.2652 34.2222 18C34.2222 17.7348 34.1168 17.4804 33.9293 17.2929C33.7417 17.1054 33.4874 17 33.2222 17H30.2222Z" fill="#8E8EA1"/>
<path fill-rule="evenodd" clip-rule="evenodd" d="M23.7601 27.218C20.4301 26.188 21.2701 24.348 22.5401 23H41.1821C42.1981 24.298 42.7431 26.049 39.6721 27.097C39.7976 28.211 39.6876 29.339 39.3492 30.4078C39.0107 31.4765 38.4515 32.4622 37.7076 33.301C36.9637 34.1397 36.0519 34.8127 35.0312 35.2764C34.0105 35.7401 32.9038 35.984 31.7827 35.9925C30.6617 36.0009 29.5514 35.7737 28.5238 35.3255C27.4963 34.8772 26.5744 34.218 25.8179 33.3906C25.0615 32.5632 24.4874 31.5861 24.1329 30.5225C23.7784 29.459 23.6514 28.3328 23.7601 27.217V27.218ZM31.4501 28C34.0921 28 36.1401 27.86 37.7101 27.616C37.7617 28.4313 37.6463 29.2486 37.3709 30.0177C37.0955 30.7868 36.6659 31.4916 36.1085 32.0889C35.5511 32.6861 34.8776 33.1632 34.1293 33.491C33.3809 33.8187 32.5736 33.9902 31.7566 33.9949C30.9397 33.9996 30.1304 33.8375 29.3784 33.5184C28.6263 33.1992 27.9474 32.7299 27.3831 32.1391C26.8189 31.5483 26.3812 30.8485 26.097 30.0826C25.8127 29.3167 25.6879 28.5009 25.7301 27.685C27.1931 27.887 29.0681 28 31.4501 28Z" fill="#8E8EA1"/>
<path fill-rule="evenodd" clip-rule="evenodd" d="M40.1392 42.6C39.2347 41.1888 37.9897 40.0278 36.5188 39.224C35.0479 38.4201 33.3984 37.9992 31.7222 38C30.0453 37.9989 28.3951 38.4199 26.9236 39.2241C25.4522 40.0284 24.2068 41.19 23.3022 42.602C22.9665 42.0849 22.4509 41.7108 21.8552 41.552L19.9232 41.035C19.2828 40.8633 18.6005 40.953 18.0263 41.2844C17.4521 41.6158 17.033 42.1617 16.8612 42.802L16.0852 45.7C16.0002 46.0171 15.9785 46.3479 16.0214 46.6734C16.0642 46.999 16.1708 47.3129 16.335 47.5972C16.4992 47.8815 16.7177 48.1308 16.9782 48.3306C17.2387 48.5305 17.5361 48.6771 17.8532 48.762L19.7842 49.28C20.109 49.3675 20.4482 49.3883 20.7812 49.3412C21.1143 49.2941 21.4344 49.1801 21.7222 49.006C21.723 49.2712 21.8291 49.5253 22.0172 49.7122C22.2053 49.8992 22.46 50.0038 22.7252 50.003C22.9904 50.0022 23.2445 49.8961 23.4314 49.708C23.6184 49.5199 23.723 49.2652 23.7222 49V48C23.7222 47.619 23.7492 47.244 23.8002 46.877L29.0042 48.272C29.2458 48.7891 29.6298 49.2265 30.1112 49.5329C30.5927 49.8394 31.1515 50.0022 31.7222 50.0022C32.2929 50.0022 32.8518 49.8394 33.3332 49.5329C33.8146 49.2265 34.1986 48.7891 34.4402 48.272L39.6442 46.877C39.6952 47.244 39.7222 47.619 39.7222 48V49C39.7209 49.2652 39.825 49.5201 40.0116 49.7086C40.1982 49.897 40.452 50.0037 40.7172 50.005C40.9824 50.0063 41.2373 49.9022 41.4258 49.7156C41.6143 49.529 41.7209 49.2752 41.7222 49.01C42.2822 49.346 42.9742 49.463 43.6552 49.28L45.5872 48.763C45.9044 48.6781 46.2017 48.5315 46.4622 48.3316C46.7227 48.1318 46.9412 47.8825 47.1054 47.5982C47.2696 47.3139 47.3762 47 47.419 46.6744C47.4619 46.3489 47.4402 46.0181 47.3552 45.701L46.5782 42.803C46.4064 42.1627 45.9873 41.6168 45.4131 41.2854C44.8389 40.954 44.1566 40.8643 43.5162 41.036L41.5842 41.553C40.9899 41.7112 40.4752 42.0838 40.1392 42.599V42.6ZM24.3252 44.947C24.8654 43.6406 25.7418 42.5004 26.8654 41.6424C27.9889 40.7844 29.3196 40.2391 30.7222 40.062V44.171C30.2741 44.33 29.87 44.5929 29.5432 44.9384C29.2164 45.2838 28.9761 45.7017 28.8422 46.158L24.3252 44.948V44.947ZM39.1192 44.947C38.5789 43.6406 37.7025 42.5005 36.5789 41.6425C35.4554 40.7845 34.1247 40.2392 32.7222 40.062V44.171C33.6262 44.491 34.3322 45.231 34.6022 46.158L39.1192 44.948V44.947ZM31.7222 48C31.9874 48 32.2418 47.8946 32.4293 47.7071C32.6168 47.5196 32.7222 47.2652 32.7222 47C32.7222 46.7348 32.6168 46.4804 32.4293 46.2929C32.2418 46.1054 31.9874 46 31.7222 46C31.457 46 31.2026 46.1054 31.0151 46.2929C30.8276 46.4804 30.7222 46.7348 30.7222 47C30.7222 47.2652 30.8276 47.5196 31.0151 47.7071C31.2026 47.8946 31.457 48 31.7222 48Z" fill="#8E8EA1"/>
</g>
<defs>
<clipPath id="clip0_1_1695">
<rect width="40" height="40" fill="white" transform="translate(10 10)"/>
</clipPath>
</defs>
</svg>
