<svg width="60" height="60" viewBox="0 0 60 60" fill="none" xmlns="http://www.w3.org/2000/svg">
<rect width="60" height="60" rx="30" fill="#6160DC"/>
<path d="M46 23.3332C45.7968 23.334 45.5961 23.2884 45.4133 23.1999L30 15.3332L14.5866 23.1465C14.2578 23.3021 13.8805 23.3207 13.538 23.1982C13.1954 23.0757 12.9155 22.8221 12.76 22.4932C12.6044 22.1643 12.5858 21.7871 12.7083 21.4446C12.8308 21.102 13.0844 20.8221 13.4133 20.6665L30 12.4532L46.5866 20.6665C46.9363 20.7482 47.2396 20.9643 47.4311 21.2681C47.6225 21.5718 47.6866 21.9388 47.6095 22.2894C47.5323 22.6401 47.3201 22.9462 47.0189 23.1416C46.7177 23.337 46.3516 23.4058 46 23.3332ZM23.3333 36.6665H15.3333V44.6665H23.3333V36.6665ZM34 36.6665H26V44.6665H34V36.6665ZM44.6666 36.6665H36.6666V44.6665H44.6666V36.6665ZM39.3333 25.9999H31.3333V33.9999H39.3333V25.9999ZM28.6666 25.9999H20.6666V33.9999H28.6666V25.9999Z" fill="white"/>
</svg>
