<svg width="60" height="60" viewBox="0 0 60 60" fill="none" xmlns="http://www.w3.org/2000/svg">
<path d="M46 23.3331C45.7968 23.334 45.5961 23.2884 45.4133 23.1998L30 15.3331L14.5866 23.1465C14.2578 23.3021 13.8805 23.3206 13.538 23.1981C13.1954 23.0756 12.9155 22.822 12.76 22.4931C12.6044 22.1643 12.5858 21.787 12.7083 21.4445C12.8308 21.1019 13.0844 20.8221 13.4133 20.6665L30 12.4531L46.5866 20.6665C46.9363 20.7481 47.2396 20.9643 47.4311 21.268C47.6225 21.5718 47.6866 21.9387 47.6095 22.2893C47.5323 22.64 47.3201 22.9462 47.0189 23.1415C46.7177 23.3369 46.3516 23.4057 46 23.3331ZM23.3333 36.6665H15.3333V44.6665H23.3333V36.6665ZM34 36.6665H26V44.6665H34V36.6665ZM44.6666 36.6665H36.6666V44.6665H44.6666V36.6665ZM39.3333 25.9998H31.3333V33.9998H39.3333V25.9998ZM28.6666 25.9998H20.6666V33.9998H28.6666V25.9998Z" fill="#828282"/>
</svg>
